<svg width="304" height="91" viewBox="0 0 304 91" fill="none" xmlns="http://www.w3.org/2000/svg">
<path d="M295.13 90.5875H8.62C6.33383 90.5875 4.14134 89.6793 2.52478 88.0627C0.908217 86.4462 0 84.2537 0 81.9675V14.7574C0 12.4713 0.908217 10.2788 2.52478 8.66222C4.14134 7.04566 6.33383 6.13744 8.62 6.13744H142.39L149.51 1.01745C150.407 0.37378 151.49 0.0393106 152.594 0.0645643C153.697 0.0898179 154.763 0.47344 155.63 1.15746L161.95 6.15746H295.13C297.416 6.15746 299.609 7.06568 301.225 8.68224C302.842 10.2988 303.75 12.4913 303.75 14.7775V81.9874C303.745 84.2701 302.834 86.4576 301.218 88.0698C299.602 89.6821 297.413 90.5875 295.13 90.5875Z" fill="#FF7E36"/>
</svg>
