<svg width="287" height="86" viewBox="0 0 287 86" fill="none" xmlns="http://www.w3.org/2000/svg">
<path d="M278.54 85.5989H8.14002C7.07069 85.6002 6.01163 85.3905 5.02344 84.9819C4.03526 84.5733 3.13736 83.9738 2.38123 83.2177C1.6251 82.4615 1.02556 81.5637 0.616949 80.5756C0.208342 79.5874 -0.00130994 78.5282 6.1581e-06 77.4589V14.0389C6.15811e-06 11.8801 0.857615 9.80963 2.38416 8.28308C3.91071 6.75654 5.98116 5.89893 8.14002 5.89893H134.37L141.1 1.06897C141.947 0.465115 142.967 0.151376 144.007 0.174807C145.047 0.198238 146.051 0.557463 146.87 1.19886L152.87 5.89893H278.54C280.698 5.90157 282.767 6.76004 284.293 8.28601C285.819 9.81199 286.677 11.8809 286.68 14.0389V77.4589C286.68 79.6177 285.822 81.6882 284.296 83.2147C282.769 84.7413 280.699 85.5989 278.54 85.5989Z" fill="#00AEEF"/>
</svg>
