<svg width="217" height="66" viewBox="0 0 217 66" fill="none" xmlns="http://www.w3.org/2000/svg">
<path d="M210.2 65.4599H6.20007C5.39376 65.4599 4.59528 65.301 3.85034 64.9925C3.1054 64.6839 2.42855 64.2317 1.8584 63.6615C1.28825 63.0914 0.83603 62.4145 0.527466 61.6696C0.218902 60.9247 0.0600586 60.1262 0.0600586 59.3199V11.4599C0.0600586 10.6536 0.218902 9.85521 0.527466 9.11027C0.83603 8.36533 1.28825 7.68848 1.8584 7.11832C2.42855 6.54817 3.1054 6.09583 3.85034 5.78727C4.59528 5.47871 5.39376 5.31986 6.20007 5.31986H101.46L106.53 1.67985C107.166 1.21819 107.935 0.977197 108.72 0.993447C109.506 1.0097 110.264 1.28238 110.88 1.76994L115.38 5.31986H210.2C211.829 5.31986 213.39 5.96685 214.542 7.11832C215.693 8.2698 216.34 9.83145 216.34 11.4599V59.3199C216.34 60.9483 215.693 62.5101 214.542 63.6615C213.39 64.813 211.829 65.4599 210.2 65.4599V65.4599Z" fill="black"/>
</svg>
