<svg width="304" height="92" viewBox="0 0 304 92" fill="none" xmlns="http://www.w3.org/2000/svg">
<path d="M295.13 91.52H8.62C6.33383 91.52 4.14134 90.6118 2.52478 88.9952C0.908217 87.3787 0 85.1862 0 82.9V15.6901C0 13.4039 0.908217 11.2113 2.52478 9.59472C4.14134 7.97815 6.33383 7.06994 8.62 7.06994H142.36L149.48 1.94994C150.378 1.30784 151.46 0.974381 152.563 0.999626C153.667 1.02487 154.732 1.40747 155.6 2.08996L161.92 7.08996H295.1C297.386 7.08996 299.579 7.99817 301.195 9.61474C302.812 11.2313 303.72 13.4238 303.72 15.71V82.88C303.725 85.1644 302.824 87.3576 301.213 88.9777C299.602 90.5977 297.414 91.5121 295.13 91.52Z" fill="#EF476F"/>
</svg>
