<svg width="429" height="87" viewBox="0 0 429 87" fill="none" xmlns="http://www.w3.org/2000/svg">
<path d="M420.83 86.2594H8.13001C7.06152 86.2594 6.00352 86.0488 5.01649 85.6396C4.02946 85.2305 3.13276 84.6306 2.37769 83.8746C1.62262 83.1186 1.02396 82.2213 0.615973 81.2338C0.207991 80.2462 -0.0013081 79.1879 6.15121e-06 78.1194V14.6995C4.52342e-06 12.5423 0.856237 10.4734 2.38062 8.94715C3.90501 7.42089 5.97288 6.5621 8.13001 6.55945H219.89L226.62 1.72949C227.467 1.12564 228.487 0.811899 229.527 0.83533C230.567 0.85876 231.571 1.21799 232.39 1.85938L238.39 6.55945H420.83C422.988 6.5621 425.057 7.42056 426.583 8.94654C428.109 10.4725 428.967 12.5414 428.97 14.6995V78.1194C428.97 80.2782 428.112 82.3487 426.586 83.8752C425.059 85.4018 422.989 86.2594 420.83 86.2594Z" fill="#EF476F"/>
</svg>
