<svg width="156" height="98" viewBox="0 0 156 98" fill="none" xmlns="http://www.w3.org/2000/svg">
<path d="M14.0098 97.4189C14.0098 97.4189 36.3798 95.7389 39.0598 79.7789C41.7398 63.8189 48.5798 61.2289 57.6598 61.8689C62.5069 62.1659 67.3393 61.0884 71.6011 58.7602C75.8628 56.4321 79.3806 52.9479 81.7498 48.7088C86.1898 40.4088 84.9098 28.8989 100.57 30.1889C111.42 31.0789 116.57 19.1889 116.57 19.1889C116.57 19.1889 106.35 23.1888 98.9498 17.8388C93.2098 13.6588 86.4997 8.52888 75.4897 14.2489C68.5997 17.8389 69.3697 23.1388 60.4897 23.0788C50.8697 23.0188 52.9997 13.0789 32.2297 16.4389C16.9797 18.9289 21.0498 30.4388 0.509766 28.9688L14.0098 97.4189Z" fill="url(#paint0_linear_2529_2)"/>
<path d="M150.803 6.23878L153.355 5.18835L152.507 3.12619L149.954 4.17661L150.803 6.23878Z" fill="#C98921"/>
<path d="M155.769 2.97892C155.624 2.63384 155.38 2.33962 155.068 2.13346C154.755 1.92731 154.389 1.81853 154.014 1.82096C153.64 1.82339 153.275 1.93694 152.965 2.14713C152.656 2.35733 152.415 2.65469 152.275 3.00163C152.134 3.34857 152.1 3.72942 152.176 4.09587C152.253 4.46231 152.436 4.79784 152.703 5.05998C152.97 5.32211 153.309 5.49904 153.677 5.56828C154.045 5.63752 154.425 5.59594 154.769 5.44889C155.228 5.25275 155.591 4.88299 155.779 4.42021C155.966 3.95742 155.963 3.43923 155.769 2.97892V2.97892Z" fill="#FF7D69"/>
<path d="M118.29 11.679L121 18.2589C131.659 15.429 141.789 10.8937 151 4.82887C149.43 3.82887 143.62 0.908883 131.48 4.21888C126.865 6.2989 122.45 8.79602 118.29 11.679Z" fill="#FCEE21"/>
<path d="M121 18.2589L123.14 23.4689C129.25 23.2789 140.6 18.1689 140.6 18.1689C148.19 15.0489 152.6 8.26895 151.22 4.91895C151.197 4.86042 151.171 4.80356 151.14 4.7489C141.894 10.8598 131.714 15.4229 121 18.2589V18.2589Z" fill="#FCC721"/>
<path d="M150.86 6.47886C150.833 6.50525 150.799 6.52319 150.762 6.53038C150.726 6.53756 150.688 6.5337 150.653 6.51927C150.618 6.50483 150.589 6.4804 150.568 6.4492C150.547 6.41799 150.536 6.38135 150.536 6.34385C150.536 6.30635 150.547 6.26971 150.568 6.23851C150.589 6.2073 150.618 6.18299 150.653 6.16856C150.688 6.15413 150.726 6.15027 150.762 6.15745C150.799 6.16463 150.833 6.18246 150.86 6.20884C150.879 6.22573 150.894 6.2466 150.905 6.26988C150.915 6.29315 150.921 6.31832 150.921 6.34385C150.921 6.36939 150.915 6.39467 150.905 6.41795C150.894 6.44123 150.879 6.46197 150.86 6.47886V6.47886Z" fill="#B89A21"/>
<path d="M149.5 7.36891C149.478 7.38346 149.454 7.39347 149.429 7.39833C149.403 7.4032 149.377 7.40285 149.352 7.39723C149.327 7.39161 149.303 7.38092 149.282 7.36574C149.261 7.35055 149.243 7.33123 149.23 7.30898C149.208 7.27577 149.196 7.2366 149.196 7.19667C149.197 7.15674 149.209 7.1178 149.231 7.08485C149.254 7.05191 149.286 7.02651 149.323 7.01186C149.36 6.9972 149.401 6.99404 149.44 7.0027C149.479 7.01136 149.514 7.03143 149.542 7.06044C149.569 7.08945 149.587 7.12602 149.594 7.16542C149.6 7.20482 149.595 7.24524 149.578 7.28151C149.561 7.31778 149.534 7.34822 149.5 7.36891Z" fill="#B89A21"/>
<path d="M148.14 8.25895C148.094 8.28236 148.041 8.28821 147.992 8.27531C147.942 8.26241 147.899 8.2317 147.87 8.18901C147.856 8.16696 147.846 8.14212 147.842 8.11625C147.838 8.09039 147.839 8.06397 147.846 8.03862C147.852 8.01326 147.864 7.98964 147.88 7.96904C147.897 7.94844 147.917 7.93138 147.94 7.91899C147.962 7.90646 147.986 7.89832 148.01 7.89506C148.035 7.8918 148.06 7.89344 148.085 7.89994C148.109 7.90645 148.131 7.91763 148.151 7.9329C148.171 7.94818 148.188 7.96723 148.2 7.98893C148.227 8.033 148.235 8.08573 148.224 8.13603C148.213 8.18633 148.183 8.23034 148.14 8.25895V8.25895Z" fill="#B89A21"/>
<path d="M146.7 9.05899C146.678 9.07113 146.653 9.07867 146.628 9.08121C146.603 9.08375 146.577 9.08122 146.553 9.07376C146.529 9.06631 146.506 9.05403 146.487 9.03775C146.467 9.02147 146.451 9.00146 146.44 8.97891C146.426 8.95766 146.416 8.93372 146.412 8.9086C146.408 8.88348 146.41 8.85773 146.416 8.83316C146.423 8.80859 146.435 8.78572 146.451 8.76602C146.467 8.74633 146.487 8.73027 146.51 8.71891C146.532 8.70476 146.556 8.69533 146.582 8.6912C146.608 8.68706 146.635 8.68841 146.66 8.69498C146.685 8.70155 146.709 8.71322 146.73 8.7294C146.75 8.74558 146.767 8.7659 146.78 8.78897C146.805 8.83543 146.81 8.8899 146.795 8.94046C146.78 8.99103 146.746 9.03363 146.7 9.05899V9.05899Z" fill="#B89A21"/>
<path d="M145.28 9.85892C145.257 9.87106 145.233 9.8786 145.208 9.88114C145.183 9.88368 145.157 9.88115 145.133 9.87369C145.109 9.86624 145.086 9.85409 145.067 9.83781C145.047 9.82153 145.031 9.80152 145.02 9.77897C145.007 9.75731 144.999 9.73334 144.996 9.70853C144.993 9.68373 144.994 9.65859 145.001 9.63444C145.007 9.61028 145.018 9.5876 145.034 9.56779C145.049 9.54797 145.068 9.5314 145.09 9.51896C145.135 9.49317 145.189 9.48599 145.239 9.49906C145.289 9.51213 145.333 9.54437 145.36 9.5889C145.385 9.63537 145.39 9.68983 145.375 9.74039C145.36 9.79096 145.326 9.83356 145.28 9.85892V9.85892Z" fill="#B89A21"/>
<path d="M143.85 10.6389C143.803 10.6613 143.75 10.6656 143.7 10.6508C143.65 10.636 143.607 10.6033 143.58 10.5589C143.568 10.5353 143.561 10.5095 143.559 10.4831C143.557 10.4567 143.561 10.4302 143.569 10.4051C143.577 10.38 143.591 10.3567 143.608 10.3367C143.625 10.3168 143.647 10.3006 143.67 10.2889C143.716 10.267 143.768 10.2631 143.816 10.2779C143.864 10.2927 143.905 10.3252 143.93 10.3688C143.953 10.4158 143.957 10.4693 143.942 10.5192C143.928 10.5691 143.895 10.6118 143.85 10.6389V10.6389Z" fill="#B89A21"/>
<path d="M142.4 11.389C142.378 11.4011 142.354 11.4086 142.328 11.4112C142.303 11.4137 142.278 11.4112 142.254 11.4037C142.229 11.3963 142.207 11.3841 142.187 11.3678C142.168 11.3516 142.152 11.3316 142.14 11.309C142.128 11.2868 142.121 11.2622 142.118 11.237C142.116 11.2118 142.118 11.1864 142.126 11.1622C142.133 11.1379 142.145 11.1154 142.161 11.096C142.178 11.0766 142.198 11.0606 142.22 11.049C142.267 11.024 142.321 11.0184 142.372 11.0334C142.422 11.0484 142.465 11.0827 142.49 11.129C142.502 11.1518 142.509 11.1769 142.511 11.2026C142.513 11.2282 142.509 11.2539 142.501 11.2782C142.493 11.3026 142.479 11.3249 142.462 11.3439C142.445 11.363 142.424 11.3783 142.4 11.389V11.389Z" fill="#B89A21"/>
<path d="M140.939 12.1289C140.917 12.1407 140.892 12.1477 140.866 12.1495C140.84 12.1514 140.814 12.1481 140.79 12.1397C140.766 12.1312 140.744 12.1179 140.724 12.1006C140.705 12.0833 140.69 12.0624 140.679 12.0389C140.668 12.0161 140.661 11.991 140.659 11.9653C140.657 11.9397 140.66 11.914 140.669 11.8897C140.677 11.8653 140.69 11.843 140.708 11.824C140.725 11.8049 140.746 11.7896 140.769 11.7789C140.792 11.7671 140.817 11.7601 140.843 11.7583C140.869 11.7565 140.894 11.7598 140.919 11.7682C140.943 11.7766 140.965 11.7899 140.984 11.8073C141.003 11.8246 141.019 11.8455 141.029 11.8689C141.051 11.9155 141.053 11.9685 141.036 12.0169C141.02 12.0652 140.985 12.1053 140.939 12.1289V12.1289Z" fill="#B89A21"/>
<path d="M139.47 12.8389C139.422 12.8593 139.368 12.8604 139.319 12.8417C139.271 12.823 139.231 12.7861 139.21 12.7389C139.198 12.7161 139.191 12.6911 139.189 12.6654C139.187 12.6398 139.191 12.6139 139.199 12.5896C139.207 12.5653 139.221 12.543 139.238 12.524C139.255 12.5049 139.276 12.4896 139.3 12.4789C139.348 12.4585 139.401 12.4576 139.45 12.4762C139.498 12.4949 139.538 12.5317 139.56 12.5789C139.571 12.6018 139.578 12.6268 139.58 12.6525C139.582 12.6782 139.579 12.7039 139.57 12.7282C139.562 12.7525 139.549 12.7749 139.531 12.794C139.514 12.813 139.493 12.8282 139.47 12.8389V12.8389Z" fill="#B89A21"/>
<path d="M137.99 13.5189C137.967 13.5304 137.941 13.5369 137.915 13.5381C137.889 13.5392 137.863 13.535 137.839 13.5256C137.814 13.5162 137.792 13.5019 137.773 13.4835C137.755 13.4652 137.74 13.4432 137.73 13.4189C137.72 13.396 137.715 13.3712 137.715 13.3462C137.715 13.3212 137.719 13.2964 137.728 13.2732C137.738 13.25 137.752 13.2287 137.769 13.2108C137.787 13.1929 137.807 13.1787 137.83 13.1689C137.853 13.1571 137.878 13.15 137.904 13.1482C137.93 13.1463 137.955 13.1498 137.98 13.1582C138.004 13.1666 138.026 13.1798 138.045 13.1971C138.064 13.2144 138.08 13.2355 138.09 13.2589C138.111 13.3067 138.112 13.3606 138.093 13.4092C138.074 13.4577 138.038 13.4971 137.99 13.5189V13.5189Z" fill="#B89A21"/>
<path d="M136.49 14.179C136.444 14.1989 136.391 14.1994 136.344 14.1807C136.297 14.1619 136.26 14.1253 136.24 14.0789C136.22 14.0325 136.22 13.9801 136.238 13.9332C136.257 13.8864 136.294 13.8488 136.34 13.8289C136.363 13.819 136.388 13.8138 136.413 13.8135C136.438 13.8132 136.462 13.8179 136.486 13.8272C136.509 13.8364 136.53 13.8502 136.548 13.8677C136.566 13.8852 136.58 13.906 136.59 13.929C136.6 13.952 136.605 13.9766 136.605 14.0016C136.606 14.0266 136.601 14.0514 136.592 14.0746C136.582 14.0978 136.569 14.119 136.551 14.1369C136.534 14.1547 136.513 14.1691 136.49 14.179V14.179Z" fill="#B89A21"/>
<path d="M134.99 14.8289C134.967 14.8385 134.941 14.8434 134.916 14.8431C134.89 14.8427 134.865 14.8372 134.842 14.8269C134.818 14.8167 134.798 14.8018 134.78 14.7832C134.763 14.7647 134.749 14.7428 134.74 14.7189C134.73 14.6959 134.725 14.6713 134.725 14.6463C134.724 14.6213 134.729 14.5964 134.738 14.5732C134.747 14.5499 134.761 14.5288 134.779 14.5109C134.796 14.493 134.817 14.4787 134.84 14.4689C134.888 14.4485 134.942 14.4476 134.99 14.4662C135.039 14.4849 135.078 14.5218 135.1 14.569C135.117 14.6183 135.116 14.6721 135.095 14.7201C135.075 14.7682 135.037 14.807 134.99 14.8289V14.8289Z" fill="#B89A21"/>
<path d="M133.479 15.4489C133.456 15.4585 133.43 15.4634 133.405 15.463C133.38 15.4627 133.354 15.4572 133.331 15.4469C133.308 15.4367 133.287 15.4218 133.269 15.4032C133.252 15.3847 133.238 15.3628 133.229 15.3389C133.21 15.2898 133.21 15.2349 133.231 15.1862C133.251 15.1374 133.29 15.0988 133.339 15.0789C133.363 15.0692 133.388 15.0645 133.414 15.0648C133.439 15.0652 133.464 15.0707 133.488 15.081C133.511 15.0912 133.532 15.1061 133.55 15.1247C133.567 15.1432 133.58 15.1651 133.589 15.189C133.607 15.2382 133.605 15.2922 133.585 15.3402C133.564 15.3883 133.527 15.427 133.479 15.4489V15.4489Z" fill="#B89A21"/>
<path d="M131.96 16.039C131.937 16.0481 131.912 16.0526 131.886 16.052C131.861 16.0515 131.836 16.0459 131.813 16.0357C131.789 16.0254 131.768 16.0108 131.751 15.9924C131.733 15.9741 131.72 15.9526 131.71 15.929C131.701 15.9053 131.697 15.8801 131.697 15.8548C131.698 15.8294 131.703 15.8044 131.714 15.7811C131.724 15.7579 131.739 15.7369 131.757 15.7194C131.775 15.7018 131.797 15.6882 131.82 15.679C131.844 15.6693 131.869 15.6645 131.895 15.6648C131.92 15.6652 131.945 15.6707 131.969 15.6809C131.992 15.6912 132.013 15.7061 132.031 15.7246C132.048 15.7432 132.062 15.7651 132.07 15.789C132.08 15.8126 132.085 15.8378 132.085 15.8633C132.084 15.8888 132.079 15.9139 132.068 15.9373C132.058 15.9606 132.043 15.9816 132.025 15.999C132.006 16.0165 131.984 16.0301 131.96 16.039V16.039Z" fill="#B89A21"/>
<path d="M130.43 16.6189C130.381 16.6327 130.328 16.6282 130.282 16.6061C130.236 16.584 130.2 16.5459 130.18 16.4989C130.171 16.4753 130.166 16.45 130.166 16.4246C130.166 16.3991 130.172 16.3739 130.182 16.3506C130.192 16.3273 130.207 16.3063 130.226 16.2888C130.244 16.2713 130.266 16.2577 130.29 16.2489C130.315 16.2394 130.342 16.2349 130.368 16.2358C130.395 16.2367 130.421 16.243 130.445 16.2541C130.47 16.2653 130.491 16.2812 130.509 16.3009C130.527 16.3206 130.541 16.3437 130.55 16.3689C130.564 16.418 130.559 16.4705 130.537 16.5165C130.515 16.5625 130.477 16.5989 130.43 16.6189V16.6189Z" fill="#B89A21"/>
<path d="M128.89 17.169C128.841 17.1828 128.788 17.1781 128.742 17.156C128.696 17.134 128.66 17.096 128.64 17.049C128.631 17.0241 128.627 16.9975 128.628 16.971C128.63 16.9445 128.637 16.9186 128.649 16.8951C128.662 16.8715 128.679 16.8508 128.699 16.8343C128.72 16.8177 128.744 16.8057 128.77 16.799C128.793 16.7897 128.819 16.7853 128.844 16.7864C128.869 16.7875 128.894 16.794 128.917 16.8053C128.939 16.8167 128.959 16.8326 128.975 16.8522C128.992 16.8718 129.003 16.8946 129.01 16.919C129.019 16.9432 129.024 16.9691 129.023 16.995C129.022 17.021 129.015 17.0466 129.004 17.07C128.993 17.0934 128.977 17.1142 128.957 17.1313C128.938 17.1483 128.915 17.1612 128.89 17.169V17.169Z" fill="#B89A21"/>
<path d="M127.34 17.6989C127.315 17.7065 127.29 17.7092 127.264 17.7068C127.239 17.7044 127.214 17.6968 127.192 17.6847C127.17 17.6726 127.15 17.6561 127.134 17.6363C127.118 17.6164 127.106 17.5935 127.1 17.569C127.09 17.5454 127.086 17.5202 127.087 17.4949C127.088 17.4696 127.095 17.4448 127.106 17.4221C127.117 17.3995 127.133 17.3795 127.153 17.3634C127.172 17.3474 127.195 17.3355 127.22 17.3289C127.244 17.3195 127.27 17.3152 127.296 17.3162C127.322 17.3172 127.347 17.3235 127.371 17.3347C127.394 17.346 127.415 17.362 127.432 17.3816C127.449 17.4013 127.462 17.4241 127.47 17.4489C127.485 17.4993 127.48 17.5539 127.456 17.6007C127.432 17.6476 127.39 17.6828 127.34 17.6989V17.6989Z" fill="#B89A21"/>
<path d="M125.79 18.1989C125.766 18.2065 125.74 18.2092 125.715 18.2068C125.689 18.2044 125.665 18.1968 125.642 18.1847C125.62 18.1726 125.6 18.1561 125.584 18.1362C125.568 18.1163 125.557 18.0935 125.55 18.069C125.541 18.0454 125.536 18.0202 125.537 17.9949C125.538 17.9696 125.545 17.9448 125.556 17.9221C125.568 17.8995 125.583 17.8795 125.603 17.8634C125.623 17.8473 125.645 17.8355 125.67 17.8289C125.695 17.8196 125.721 17.8157 125.748 17.8174C125.774 17.819 125.8 17.8261 125.824 17.8384C125.847 17.8506 125.868 17.8677 125.884 17.8884C125.901 17.9092 125.913 17.9332 125.92 17.9589C125.927 17.9831 125.93 18.0087 125.928 18.0341C125.925 18.0594 125.918 18.0841 125.906 18.1064C125.894 18.1288 125.877 18.1485 125.857 18.1644C125.837 18.1803 125.814 18.192 125.79 18.1989V18.1989Z" fill="#B89A21"/>
<path d="M124.229 18.6789C124.205 18.6866 124.18 18.6892 124.154 18.6867C124.129 18.6843 124.104 18.6769 124.082 18.6648C124.06 18.6526 124.04 18.6361 124.024 18.6162C124.008 18.5963 123.996 18.5734 123.989 18.5489C123.975 18.4998 123.98 18.4469 124.005 18.4019C124.029 18.3569 124.07 18.3235 124.119 18.3089C124.169 18.2943 124.221 18.2998 124.266 18.3242C124.311 18.3486 124.345 18.3899 124.359 18.4389C124.367 18.4632 124.37 18.4888 124.367 18.5141C124.365 18.5395 124.357 18.564 124.345 18.5864C124.333 18.6088 124.317 18.6285 124.297 18.6444C124.277 18.6603 124.254 18.672 124.229 18.6789V18.6789Z" fill="#B89A21"/>
<path d="M122.66 19.1389C122.611 19.1516 122.559 19.1453 122.515 19.1212C122.47 19.0971 122.436 19.0569 122.42 19.0089C122.413 18.9839 122.41 18.9577 122.413 18.9319C122.417 18.906 122.425 18.881 122.438 18.8585C122.451 18.836 122.469 18.8164 122.49 18.801C122.511 18.7856 122.535 18.7747 122.56 18.7689C122.609 18.7561 122.661 18.7625 122.706 18.7866C122.75 18.8107 122.784 18.8509 122.8 18.8989C122.808 18.9239 122.81 18.95 122.807 18.9759C122.804 19.0018 122.795 19.0268 122.782 19.0493C122.769 19.0718 122.751 19.0914 122.73 19.1068C122.709 19.1222 122.686 19.1331 122.66 19.1389V19.1389Z" fill="#B89A21"/>
<path d="M131.5 4.25886C143.64 0.948863 149.5 3.83885 151.02 4.86885L151.14 4.78889C149.58 1.56889 141.81 -0.0511276 134.35 3.01887C134.35 2.97887 133.24 3.41886 131.5 4.25886Z" fill="white"/>
<path d="M122.03 10.8389C122.049 10.8558 122.065 10.8766 122.075 10.8999C122.086 10.9232 122.091 10.9483 122.091 10.9739C122.091 10.9994 122.086 11.0247 122.075 11.048C122.065 11.0713 122.049 11.092 122.03 11.1089C122.013 11.1267 121.992 11.141 121.968 11.1506C121.945 11.1603 121.92 11.1652 121.895 11.1652C121.87 11.1652 121.845 11.1603 121.822 11.1506C121.799 11.141 121.778 11.1267 121.76 11.1089C121.724 11.0715 121.703 11.0212 121.703 10.9689C121.703 10.9165 121.724 10.8663 121.76 10.8289C121.779 10.8117 121.8 10.7984 121.824 10.7896C121.847 10.7807 121.872 10.7767 121.897 10.7776C121.922 10.7785 121.947 10.7844 121.97 10.7949C121.993 10.8055 122.013 10.8204 122.03 10.8389V10.8389Z" fill="#CDB021"/>
<path d="M123.46 11.6089C123.485 11.6178 123.509 11.6317 123.528 11.6497C123.548 11.6676 123.564 11.6894 123.575 11.7136C123.586 11.7378 123.593 11.7641 123.593 11.7908C123.594 11.8174 123.59 11.844 123.58 11.8689C123.571 11.8928 123.558 11.9147 123.54 11.9332C123.523 11.9518 123.502 11.9667 123.479 11.9769C123.455 11.9872 123.43 11.9927 123.405 11.993C123.379 11.9934 123.354 11.9885 123.33 11.9789C123.291 11.9553 123.26 11.9187 123.244 11.8752C123.229 11.8318 123.228 11.7843 123.244 11.7407C123.259 11.6971 123.289 11.6601 123.329 11.6361C123.368 11.6121 123.415 11.6024 123.46 11.6089Z" fill="#CDB021"/>
<path d="M125.05 11.9888C125.102 11.9963 125.149 12.023 125.182 12.0638C125.216 12.1045 125.232 12.1562 125.229 12.2088C125.222 12.2601 125.195 12.3066 125.154 12.3383C125.113 12.37 125.061 12.3846 125.009 12.3789C124.983 12.3764 124.958 12.3687 124.935 12.3561C124.913 12.3436 124.893 12.3265 124.877 12.3059C124.861 12.2852 124.849 12.2614 124.843 12.2362C124.836 12.2109 124.835 12.1846 124.839 12.1589C124.842 12.1339 124.849 12.1096 124.861 12.0875C124.873 12.0654 124.889 12.0458 124.909 12.03C124.929 12.0142 124.951 12.0024 124.975 11.9953C124.999 11.9882 125.025 11.9861 125.05 11.9888V11.9888Z" fill="#CDB021"/>
<path d="M126.69 12.0189C126.73 12.015 126.77 12.023 126.805 12.042C126.84 12.061 126.868 12.0901 126.887 12.1255C126.905 12.1609 126.913 12.2011 126.908 12.2407C126.904 12.2804 126.887 12.3178 126.861 12.3481C126.835 12.3785 126.801 12.4002 126.762 12.4108C126.724 12.4213 126.683 12.4202 126.645 12.4073C126.608 12.3945 126.574 12.3707 126.55 12.3389C126.526 12.3071 126.512 12.2688 126.51 12.2289C126.507 12.2031 126.51 12.1771 126.517 12.1523C126.525 12.1276 126.538 12.1048 126.555 12.0851C126.571 12.0654 126.592 12.0493 126.615 12.038C126.639 12.0266 126.664 12.0201 126.69 12.0189Z" fill="#CDB021"/>
<path d="M128.3 11.7489C128.336 11.7401 128.375 11.7423 128.41 11.7553C128.445 11.7682 128.476 11.7914 128.498 11.8217C128.52 11.852 128.533 11.8882 128.534 11.9257C128.536 11.9632 128.526 12.0004 128.507 12.0325C128.487 12.0646 128.458 12.09 128.424 12.1059C128.39 12.1217 128.352 12.1272 128.315 12.1215C128.278 12.1158 128.244 12.0991 128.216 12.0738C128.188 12.0484 128.169 12.0154 128.16 11.9789C128.154 11.9546 128.153 11.9294 128.157 11.9047C128.16 11.88 128.169 11.8563 128.182 11.8349C128.195 11.8135 128.212 11.7949 128.232 11.7802C128.253 11.7655 128.275 11.7548 128.3 11.7489V11.7489Z" fill="#CDB021"/>
<path d="M129.85 11.2589C129.899 11.2391 129.954 11.2396 130.003 11.2602C130.052 11.2808 130.09 11.3199 130.11 11.3689C130.12 11.3925 130.125 11.4177 130.125 11.4432C130.124 11.4687 130.119 11.4938 130.108 11.5172C130.098 11.5405 130.083 11.5616 130.065 11.5791C130.046 11.5965 130.024 11.61 130 11.6189C129.978 11.6303 129.953 11.6367 129.927 11.6378C129.902 11.6388 129.877 11.6345 129.853 11.6251C129.829 11.6156 129.808 11.6013 129.79 11.583C129.773 11.5647 129.759 11.5428 129.75 11.5189C129.73 11.471 129.729 11.4172 129.748 11.3686C129.766 11.3201 129.803 11.2807 129.85 11.2589V11.2589Z" fill="#CDB021"/>
<path d="M131.31 10.4689C131.355 10.4422 131.407 10.4335 131.457 10.4447C131.508 10.4559 131.552 10.4861 131.58 10.5289C131.604 10.5747 131.61 10.6275 131.597 10.6773C131.584 10.727 131.553 10.7703 131.51 10.799C131.465 10.8247 131.412 10.8318 131.361 10.8187C131.311 10.8057 131.267 10.7734 131.24 10.7289C131.228 10.7072 131.22 10.6834 131.216 10.6586C131.213 10.6338 131.215 10.6085 131.221 10.5844C131.228 10.5602 131.239 10.5376 131.254 10.5178C131.27 10.498 131.289 10.4813 131.31 10.4689V10.4689Z" fill="#CDB021"/>
<path d="M132.63 9.49893C132.649 9.48252 132.671 9.47007 132.695 9.46219C132.719 9.45431 132.744 9.45118 132.769 9.45303C132.794 9.45489 132.819 9.46162 132.841 9.47293C132.864 9.48424 132.884 9.49991 132.9 9.51895C132.916 9.53799 132.929 9.56002 132.937 9.58389C132.945 9.60777 132.948 9.63304 132.946 9.65811C132.944 9.68318 132.937 9.70756 132.926 9.73001C132.915 9.75246 132.899 9.77256 132.88 9.78897C132.841 9.82212 132.791 9.83862 132.741 9.83487C132.69 9.83112 132.643 9.80741 132.61 9.76895C132.577 9.7305 132.56 9.68043 132.564 9.62979C132.568 9.57916 132.591 9.53209 132.63 9.49893V9.49893Z" fill="#CDB021"/>
<path d="M133.75 8.30896C133.768 8.28956 133.789 8.27402 133.813 8.26343C133.837 8.25283 133.863 8.24731 133.89 8.24731C133.916 8.24731 133.942 8.25283 133.966 8.26343C133.99 8.27402 134.012 8.28956 134.03 8.30896C134.048 8.32663 134.062 8.34756 134.071 8.37073C134.081 8.3939 134.086 8.41886 134.086 8.44397C134.086 8.46908 134.081 8.49392 134.071 8.51709C134.062 8.54026 134.048 8.56119 134.03 8.57886C134.013 8.59801 133.992 8.61339 133.969 8.6239C133.946 8.63441 133.92 8.63989 133.895 8.63989C133.869 8.63989 133.844 8.63441 133.821 8.6239C133.797 8.61339 133.777 8.59801 133.76 8.57886C133.741 8.56186 133.726 8.54137 133.716 8.51855C133.705 8.49574 133.699 8.47116 133.698 8.44604C133.697 8.42093 133.702 8.39585 133.71 8.37231C133.719 8.34878 133.733 8.32728 133.75 8.30896V8.30896Z" fill="#CDB021"/>
<path d="M134.61 6.91892C134.632 6.87172 134.671 6.83481 134.72 6.81614C134.768 6.79747 134.822 6.79854 134.87 6.81895C134.893 6.82962 134.914 6.84484 134.932 6.86387C134.949 6.8829 134.962 6.90536 134.971 6.92967C134.979 6.95398 134.983 6.97969 134.981 7.00535C134.979 7.03101 134.972 7.05597 134.96 7.07884C134.938 7.12604 134.899 7.16295 134.85 7.18162C134.802 7.20029 134.748 7.19934 134.7 7.17893C134.677 7.16826 134.656 7.15292 134.638 7.13389C134.621 7.11486 134.608 7.09253 134.599 7.06822C134.591 7.04391 134.588 7.01807 134.589 6.99241C134.591 6.96675 134.598 6.94179 134.61 6.91892V6.91892Z" fill="#CDB021"/>
<path d="M135.079 5.35891C135.087 5.30852 135.115 5.26343 135.156 5.23342C135.198 5.20342 135.249 5.19092 135.3 5.19888C135.35 5.20683 135.395 5.23452 135.425 5.27578C135.455 5.31704 135.467 5.36858 135.459 5.41897C135.456 5.44392 135.447 5.46786 135.434 5.4894C135.42 5.51095 135.403 5.5296 135.383 5.54446C135.362 5.55932 135.339 5.57004 135.315 5.57595C135.29 5.58186 135.264 5.58282 135.24 5.57888C135.215 5.57494 135.191 5.56619 135.169 5.553C135.148 5.53981 135.129 5.52253 135.114 5.5021C135.099 5.48167 135.088 5.45854 135.083 5.43398C135.077 5.40942 135.076 5.38386 135.079 5.35891V5.35891Z" fill="#CDB021"/>
<path d="M135.03 3.72883C135.021 3.67717 135.033 3.62413 135.063 3.58112C135.093 3.53811 135.139 3.50859 135.19 3.49885C135.24 3.49208 135.291 3.50353 135.333 3.53107C135.375 3.55861 135.406 3.60043 135.42 3.64887C135.429 3.70053 135.417 3.75357 135.387 3.79658C135.357 3.83959 135.312 3.86911 135.26 3.87885C135.235 3.88469 135.209 3.88537 135.184 3.88093C135.159 3.87648 135.135 3.86699 135.113 3.85297C135.092 3.83896 135.073 3.82072 135.059 3.79938C135.045 3.77805 135.035 3.75405 135.03 3.72883Z" fill="#CDB021"/>
<path d="M129.246 9.7838C132.188 8.57309 133.876 5.89829 133.016 3.80944C132.157 1.72058 129.075 1.00873 126.133 2.21944C123.191 3.43015 121.504 6.10494 122.363 8.1938C123.223 10.2827 126.305 10.9945 129.246 9.7838Z" fill="white"/>
<path d="M123.08 8.15899C123.85 10.039 126.64 10.6889 129.3 9.58893C131.96 8.48893 133.48 6.07891 132.71 4.19891C131.94 2.31891 129.14 1.66897 126.49 2.75897C123.84 3.84897 122.3 6.25899 123.08 8.15899Z" fill="#8284BE"/>
<path d="M123.65 9.6589C124.36 10.8489 126.65 11.0289 129.31 9.93893C131.97 8.84893 133.56 6.80881 133.31 5.69881C132.8 3.69881 129.75 3.16888 127.09 4.26888C124.43 5.36888 122.61 7.9089 123.65 9.6589Z" fill="url(#paint1_radial_2529_2)"/>
<path d="M122.14 9.5189C123.54 11.1189 126.58 11.5189 129.53 10.2789C132.9 8.88891 134.89 5.9489 134.06 3.6489C133.938 3.55687 133.793 3.50056 133.641 3.48643C133.489 3.47229 133.336 3.50095 133.2 3.56895C133.062 3.65158 132.944 3.76332 132.854 3.89634C132.765 4.02936 132.705 4.18033 132.68 4.33884C133.1 5.89884 131.51 7.91884 128.98 8.95884C126.71 9.89884 124.41 9.72891 123.39 8.65891C123.258 8.59799 123.115 8.56638 122.97 8.56638C122.825 8.56638 122.681 8.59799 122.55 8.65891C122.399 8.74055 122.278 8.86769 122.205 9.02219C122.131 9.1767 122.108 9.35062 122.14 9.5189V9.5189Z" fill="#F72A22"/>
<path d="M121.889 9.25891C121.967 9.36659 122.05 9.47013 122.139 9.56897C122.117 9.40687 122.144 9.24171 122.217 9.09534C122.29 8.94896 122.406 8.82816 122.549 8.7489C122.681 8.68798 122.824 8.65649 122.969 8.65649C123.114 8.65649 123.258 8.68798 123.389 8.7489C123.27 8.62774 123.168 8.48955 123.089 8.33887C122.974 8.24719 122.831 8.19727 122.684 8.19727C122.537 8.19727 122.394 8.24719 122.279 8.33887C121.819 8.52887 121.699 8.85891 121.889 9.25891Z" fill="#F46B56"/>
<path d="M132.68 4.33893C132.705 4.18041 132.765 4.02944 132.855 3.89642C132.945 3.7634 133.062 3.65166 133.2 3.56903C133.337 3.50103 133.489 3.47238 133.641 3.48651C133.793 3.50064 133.938 3.55696 134.06 3.64898C134.046 3.60466 134.029 3.56123 134.01 3.51898C133.977 3.42233 133.923 3.33435 133.851 3.26153C133.78 3.18872 133.693 3.13291 133.597 3.09832C133.501 3.06374 133.398 3.05121 133.296 3.0617C133.195 3.0722 133.097 3.1055 133.01 3.15899C132.825 3.22676 132.675 3.36425 132.591 3.54193C132.507 3.71961 132.496 3.92322 132.56 4.10895C132.606 4.18212 132.647 4.25904 132.68 4.33893V4.33893Z" fill="#F46B56"/>
<path d="M130.6 2.65888C130.465 2.33738 130.209 2.0823 129.886 1.94928C129.564 1.81626 129.202 1.81602 128.88 1.94879C128.642 2.0491 128.438 2.21775 128.296 2.43341C128.153 2.64908 128.077 2.90223 128.078 3.16083C128.079 3.41943 128.156 3.67197 128.301 3.88666C128.445 4.10135 128.649 4.26846 128.888 4.36713C129.127 4.4658 129.39 4.49158 129.644 4.4411C129.897 4.39062 130.13 4.26624 130.313 4.08356C130.497 3.90088 130.622 3.66814 130.672 3.41461C130.723 3.16109 130.698 2.89811 130.6 2.65888V2.65888Z" fill="white"/>
<path d="M127.74 2.86891C127.681 2.73091 127.583 2.61336 127.458 2.53102C127.332 2.44869 127.185 2.40531 127.035 2.40627C126.885 2.40722 126.739 2.45246 126.615 2.53639C126.491 2.62032 126.394 2.7392 126.337 2.87795C126.28 3.01669 126.266 3.16905 126.295 3.31606C126.325 3.46306 126.397 3.59805 126.503 3.70399C126.609 3.80994 126.744 3.88217 126.892 3.91151C127.039 3.94085 127.191 3.92602 127.33 3.86891C127.423 3.83063 127.507 3.77428 127.578 3.70314C127.649 3.63201 127.705 3.54749 127.743 3.45448C127.782 3.36148 127.801 3.26191 127.8 3.16139C127.8 3.06088 127.779 2.96142 127.74 2.86891V2.86891Z" fill="white"/>
<path d="M155.3 3.53894C155.189 3.27022 155.001 3.04032 154.759 2.87842C154.518 2.71652 154.234 2.62993 153.943 2.6294C153.653 2.62887 153.368 2.71448 153.126 2.87549C152.884 3.03651 152.696 3.26563 152.584 3.53394C152.472 3.80225 152.442 4.09772 152.498 4.38294C152.554 4.66815 152.694 4.93033 152.899 5.13635C153.104 5.34238 153.365 5.48299 153.65 5.54041C153.935 5.59782 154.231 5.56939 154.5 5.45886C154.678 5.38541 154.841 5.27751 154.978 5.14124C155.115 5.00497 155.223 4.84299 155.298 4.66468C155.372 4.48636 155.41 4.29523 155.411 4.10205C155.411 3.90888 155.373 3.71753 155.3 3.53894Z" fill="#F72A22"/>
<path d="M153.619 2.25893C153.928 2.17947 154.253 2.19631 154.551 2.30715C154.85 2.41798 155.107 2.61748 155.289 2.87892" stroke="white" stroke-width="0.38" stroke-linecap="round" stroke-linejoin="round"/>
<path d="M114.64 13.7489L114.97 14.5489L116.75 15.0289L116.76 15.0089L116.48 14.3189L114.64 13.7489Z" fill="#FCEE21"/>
<path d="M114.97 14.549L115.85 16.699L116.75 15.0289L114.97 14.549Z" fill="#C99821"/>
<path d="M115.3 13.0989L115.62 13.8889C117.046 13.3149 118.573 13.0327 120.11 13.0589C120.26 13.0929 120.396 13.1743 120.497 13.2914C120.598 13.4084 120.659 13.5548 120.67 13.7088C120.737 13.5973 120.779 13.4723 120.793 13.3427C120.807 13.2132 120.792 13.0821 120.75 12.9588C120.39 12.0688 118.07 12.1689 115.3 13.0989Z" fill="#FD685C"/>
<path d="M115.619 13.8889L116.779 16.6988C118.779 15.6988 120.229 14.5888 120.669 13.6988C120.658 13.5447 120.597 13.3984 120.497 13.2813C120.396 13.1643 120.26 13.0828 120.109 13.0489C118.571 13.0258 117.045 13.3114 115.619 13.8889V13.8889Z" fill="#F72A22"/>
<path d="M116.26 13.129C117.279 12.7954 118.348 12.6398 119.42 12.669" stroke="#FFCBC7" stroke-width="0.56" stroke-linecap="round" stroke-linejoin="round"/>
<path d="M117.97 21.8389L118.3 22.6389L120.08 23.1089L120.09 23.0889L119.8 22.3989L117.97 21.8389Z" fill="#FCEE21"/>
<path d="M118.3 22.6389L119.18 24.7789L120.08 23.1089L118.3 22.6389Z" fill="#C99821"/>
<path d="M118.619 21.1789L118.949 21.9788C120.37 21.3985 121.894 21.1128 123.429 21.1389C123.58 21.1728 123.716 21.2542 123.817 21.3713C123.917 21.4883 123.978 21.6348 123.989 21.7889C124.06 21.679 124.105 21.5542 124.121 21.4243C124.137 21.2943 124.122 21.1625 124.079 21.0389C123.719 20.1589 121.389 20.2589 118.619 21.1789Z" fill="#FD685C"/>
<path d="M118.949 21.9789L120.099 24.779C122.099 23.779 123.559 22.669 123.989 21.779C123.978 21.6249 123.917 21.4785 123.817 21.3615C123.716 21.2444 123.58 21.1629 123.429 21.1289C121.894 21.106 120.37 21.3952 118.949 21.9789V21.9789Z" fill="#F72A22"/>
<path d="M119.59 21.259C120.609 20.9254 121.678 20.7698 122.75 20.799" stroke="#FFCBC7" stroke-width="0.56" stroke-linecap="round" stroke-linejoin="round"/>
<path d="M132.97 6.1189C132.59 7.0389 131.58 8.3789 128.97 9.4989" stroke="#FFCBC7" stroke-width="0.56" stroke-linecap="round" stroke-linejoin="round"/>
<path d="M133.21 5.00891C133.216 5.21456 133.192 5.42001 133.14 5.6189" stroke="#FFCBC7" stroke-width="0.56" stroke-linecap="round" stroke-linejoin="round"/>
<path d="M124.22 9.77893C125.315 10.1711 126.504 10.2234 127.63 9.92896" stroke="#FFCBC7" stroke-width="0.56" stroke-linecap="round" stroke-linejoin="round"/>
<path d="M123.26 9.14893C123.4 9.30569 123.566 9.43757 123.75 9.53894" stroke="#FFCBC7" stroke-width="0.56" stroke-linecap="round" stroke-linejoin="round"/>
<path d="M151.139 4.79895C146.125 8.05526 140.847 10.8851 135.359 13.2589C130.676 15.1818 125.892 16.8509 121.029 18.2589" stroke="white" stroke-width="0.28" stroke-linecap="round" stroke-linejoin="round"/>
<path d="M150.79 11.7589C150.952 11.6921 151.099 11.5941 151.223 11.4704C151.346 11.3468 151.444 11.1999 151.511 11.0383C151.578 10.8767 151.612 10.7033 151.612 10.5284C151.612 10.3535 151.577 10.1804 151.51 10.0189L147.84 1.09886C147.705 0.772321 147.446 0.512439 147.12 0.375717C146.795 0.238994 146.428 0.236521 146.1 0.368881V0.368881C145.775 0.505928 145.518 0.765361 145.383 1.09105C145.248 1.41674 145.247 1.78244 145.38 2.10887L149.05 11.0389C149.117 11.2006 149.215 11.3475 149.339 11.4712C149.462 11.5949 149.609 11.693 149.771 11.7599C149.932 11.8268 150.106 11.8611 150.281 11.8609C150.456 11.8608 150.629 11.8261 150.79 11.7589Z" fill="#FF7D69"/>
<path d="M149.019 11.0968C149.236 11.6229 149.838 11.8739 150.364 11.6574C150.89 11.4409 151.141 10.8389 150.924 10.3129L147.552 2.11963C147.336 1.59359 146.734 1.34264 146.208 1.55913C145.682 1.77563 145.431 2.37757 145.647 2.90362L149.019 11.0968Z" fill="#F72A22"/>
<path d="M149.79 8.25892C149.857 8.23019 149.91 8.17659 149.938 8.10938C149.966 8.04217 149.967 7.96666 149.94 7.89893L147.52 2.04895C147.508 2.01532 147.489 1.98452 147.465 1.9585C147.44 1.93248 147.411 1.91179 147.378 1.89771C147.345 1.88363 147.31 1.8765 147.274 1.87671C147.238 1.87693 147.203 1.88447 147.17 1.89893V1.89893C147.137 1.91099 147.106 1.92986 147.08 1.95435C147.054 1.97884 147.033 2.00842 147.019 2.04126C147.005 2.07411 146.998 2.10954 146.998 2.14527C146.998 2.181 147.006 2.21623 147.02 2.24891L149.43 8.10889C149.459 8.17579 149.513 8.22884 149.58 8.25684C149.647 8.28484 149.723 8.28563 149.79 8.25892V8.25892Z" fill="#FFCFC8"/>
<path d="M146.729 16.169C147.056 16.0338 147.316 15.7752 147.453 15.4493C147.589 15.1234 147.592 14.7567 147.459 14.429L141.859 0.819027C141.722 0.494293 141.463 0.236631 141.137 0.101864C140.812 -0.0329029 140.446 -0.0340147 140.119 0.0989344V0.0989344C139.793 0.234091 139.533 0.492774 139.396 0.818661C139.26 1.14455 139.257 1.51124 139.39 1.83892L144.989 15.4489C145.056 15.6106 145.154 15.7576 145.278 15.8813C145.402 16.005 145.549 16.1031 145.71 16.17C145.872 16.2369 146.045 16.2711 146.22 16.2709C146.395 16.2708 146.568 16.2362 146.729 16.169Z" fill="#FF7D69"/>
<path d="M145.022 15.3692C145.245 15.9105 145.864 16.1685 146.406 15.9455C146.947 15.7225 147.205 15.103 146.982 14.5617L141.87 2.15338C141.647 1.61209 141.028 1.35414 140.486 1.57713C139.945 1.80012 139.687 2.41961 139.91 2.9609L145.022 15.3692Z" fill="#F72A22"/>
<path d="M145.2 11.1089C145.233 11.0968 145.264 11.078 145.29 11.0535C145.316 11.029 145.337 10.9994 145.351 10.9666C145.365 10.9337 145.372 10.8984 145.372 10.8627C145.372 10.827 145.364 10.7916 145.35 10.7589L141.81 2.15895C141.797 2.12496 141.777 2.09398 141.751 2.06788C141.726 2.04178 141.695 2.02111 141.662 2.00709C141.628 1.99308 141.592 1.98602 141.556 1.98634C141.519 1.98666 141.483 1.99432 141.45 2.00892V2.00892C141.383 2.03765 141.33 2.09125 141.302 2.15846C141.274 2.22566 141.273 2.30118 141.3 2.36891L144.84 10.9589C144.868 11.0258 144.922 11.0789 144.989 11.1069C145.057 11.1349 145.132 11.1356 145.2 11.1089V11.1089Z" fill="#FFCFC8"/>
<path d="M116.3 17.799L116.63 18.599L118.41 19.069L118.42 19.049L118.14 18.359L116.3 17.799Z" fill="#FCEE21"/>
<path d="M116.63 18.5989L117.52 20.7389L118.41 19.0689L116.63 18.5989Z" fill="#C99821"/>
<path d="M116.96 17.139L117.29 17.939C118.711 17.3602 120.236 17.0777 121.77 17.1089C121.921 17.1393 122.057 17.2185 122.158 17.3341C122.26 17.4498 122.32 17.5956 122.33 17.7489C122.398 17.6379 122.442 17.5133 122.458 17.3838C122.473 17.2543 122.46 17.123 122.42 16.9989C122.05 16.1189 119.73 16.259 116.96 17.139Z" fill="#FD685C"/>
<path d="M117.29 17.939L118.44 20.7389C120.44 19.7389 121.9 18.6289 122.33 17.7389C122.32 17.5856 122.26 17.4398 122.158 17.3241C122.057 17.2085 121.921 17.1293 121.77 17.0989C120.235 17.0709 118.711 17.3568 117.29 17.939Z" fill="#F72A22"/>
<path d="M117.93 17.179C118.948 16.8397 120.017 16.6805 121.09 16.7089" stroke="#FFCBC7" stroke-width="0.56" stroke-linecap="round" stroke-linejoin="round"/>
<defs>
<linearGradient id="paint0_linear_2529_2" x1="55.9938" y1="-0.973137" x2="71.0802" y2="50.7517" gradientUnits="userSpaceOnUse">
<stop stop-color="#BD96FF" stop-opacity="0"/>
<stop offset="1" stop-color="#F300D9" stop-opacity="0.9"/>
</linearGradient>
<radialGradient id="paint1_radial_2529_2" cx="0" cy="0" r="1" gradientUnits="userSpaceOnUse" gradientTransform="translate(132.398 -3.37239) rotate(-16.2603) scale(9.31004 9.31006)">
<stop stop-color="#5D6FC6"/>
<stop offset="0.15" stop-color="#385098"/>
<stop offset="0.3" stop-color="#1A3673"/>
<stop offset="0.43" stop-color="#07275B"/>
<stop offset="0.5" stop-color="#002153"/>
<stop offset="1" stop-color="#001138"/>
</radialGradient>
</defs>
</svg>
