<?xml version="1.0" encoding="UTF-8"?>
<svg id="Capa_2" data-name="Capa 2" xmlns="http://www.w3.org/2000/svg" viewBox="0 0 328.78 79.18">
  <defs>
    <style>
      .cls-1 {
        fill: #00c0f2;
      }

      .cls-2 {
        fill: #00adee;
      }

      .cls-3 {
        fill: #aae0f9;
      }

      .cls-4 {
        fill: #6dcff5;
      }
    </style>
  </defs>
  <g id="Capa_1-2" data-name="Capa 1">
    <g>
      <path d="M106.29,26.27v-.57c-.13-1.34-1.35-1.34-1.35-1.34h-7.86s-1.29,0-1.38,1.34c0,1.86,0,6.31,.03,11.58v25.68c0,.1,0,.18-.02,.21,0,0,.02,.01,.02,.03v.32c.12,1.35,1.35,1.35,1.35,1.35h7.85s1.29,0,1.38-1.35c0-1.84-.01-4.8-.01-10.06V26.27Zm51.84-12.11H82.24s-1.38-.04-1.38,1.48c0,1.67,.03,4.65,0,6.08,.03,1.47,1.35,1.45,1.35,1.45h25.45s49.6-.04,50.46,0c1.29-.1,1.35-1.35,1.35-1.35v-6.33s0-1.27-1.34-1.34m-.03,20.92h-25.56c-.19,.05-1.34-.2-1.36-1.34-.08-1.59,.95-5.06,3.68-7.59,.61-.61,.47-1.79-1.26-1.79h-9.98c-.54,0-.87,.34-.98,.52-10.02,14.59-3.41,38.95,21.29,39.92h14.17c.72,0,1.37-.54,1.37-1.35v-6.22c0-.12-.08-1.39-1.37-1.39h-15.5c-6.18,0-11.04-4.91-11.42-10.37,0,0,.03-1.37,1.38-1.37h25.53c1.29-.11,1.37-1.17,1.38-1.34v-6.29s.03-1.3-1.37-1.38m69.23,20.77h-26s-.07,0-.07,0h-12.55c-23.61-2.48-19.08-32.69,.09-32.66h12.43c1.19,0,1.37-1.07,1.4-1.33v-6.31c-.12-1.45-1.38-1.37-1.38-1.37h-15.13c-32.91,2.4-33.22,47.63-.48,50.62h.3c.06,.02,.1,0,.1,0h27.11s13.3-.03,14.16,0c1.3-.07,1.36-1.34,1.36-1.34v-6.25s0-1.26-1.35-1.35"/>
      <path d="M234.27,34.58h-11.98c-1.95,0-3.5-.36-4.6-1.06-1.5-.95-2.24-2.56-2.24-4.83,0-3.67,2.02-5.51,6.07-5.51h25.29c.09,0,1.35-.12,1.35-1.36v-6.31c-.07-1.34-1.34-1.34-1.34-1.34h-26.61c-18.73,1.34-18.73,28.61,.14,29.3h11.81c1.82,0,3.37,.62,4.65,1.56,1.49,1.12,2.23,2.7,2.23,4.76s-.67,3.59-2.02,4.59c-1.22,.89-3.04,1.47-5.46,1.47,0,0-1.4-.02-1.4,1.51,0,1.66,.05,4.56,.01,5.98,.05,1.47,1.35,1.46,1.35,1.46h2.62c.43,0,.84-.03,1.26-.05,.11,0,.21-.01,.32-.04,.39,0,.78-.06,1.14-.11,.03,0,.06,0,.07-.02,.4-.04,.77-.12,1.15-.19,.09-.01,.2-.04,.29-.06,.33-.07,.66-.15,.99-.25,.04,0,.07-.02,.1-.02,.34-.1,.7-.22,1.04-.33,.08-.04,.17-.08,.25-.11,.29-.1,.57-.23,.86-.36,.05-.02,.08-.04,.13-.05,.3-.14,.6-.31,.89-.46,.07-.04,.15-.08,.23-.12,.25-.16,.5-.31,.75-.45,.04-.04,.08-.07,.13-.1,.28-.17,.53-.36,.78-.57,.06-.04,.14-.11,.2-.14,.22-.18,.42-.36,.62-.54,.05-.03,.09-.07,.14-.11,.22-.21,.45-.44,.67-.66,.04-.06,.11-.12,.15-.17,.2-.19,.36-.39,.52-.59,.05-.05,.08-.1,.12-.14,.2-.25,.37-.49,.57-.73,.04-.06,.08-.14,.12-.2,.14-.22,.28-.43,.42-.65,.04-.05,.06-.1,.1-.16,.16-.26,.29-.53,.43-.79,.04-.08,.06-.15,.1-.21,.12-.22,.22-.45,.32-.7,.01-.04,.03-.08,.05-.12,3.6-8.7-1.07-20.5-14.76-21.01m77.27-20.41h-3.86c-10.89,0-8.83,0-9.23,0-1.27,.08-1.34,1.35-1.34,1.35l.02,6.28s0,1.27,1.34,1.35h13.06c2.06,0,3.61,.81,4.65,2.2,.92,1.22,1.36,2.87,1.36,4.92,0,2.88-.75,5-2.22,6.36-1.07,.98-2.49,1.18-4.24,1.18,0,0-12.24,0-12.63-.03-1.27,.09-1.34,1.36-1.34,1.36l.02,6.68s0,1.26,1.34,1.35h13.94c23.47-2.61,20.37-32.49-.88-33"/>
      <path d="M293.65,14.23h-7.94s-1.31,0-1.31,1.35V60.96c0,.24,.21,.45,.47,.45,.09,0,.19-.03,.25-.07,5.53-3.49,9.59-9.61,9.89-18.43V15.58c-.09-1.34-1.36-1.35-1.36-1.35"/>
      <path d="M281.16,51.37c-.32,0-.61,.12-.8,.35-6.35,5.32-17.82,2.47-18.61-8.91V15.58c-.03-1.37-1.36-1.35-1.36-1.35h-7.84s-1.35,0-1.35,1.36v27.26c.57,18.47,17.53,25.25,30.18,20.38h0c.53-.2,.89-.7,.89-1.3v-9.44c0-.63-.49-1.13-1.12-1.13"/>
      <path class="cls-2" d="M38.12,.15c6.88,3.08,19.21,12.21,20.09,12.73,1.18,.74,.88,1.94,.35,2.3-.2,.14-15.13,13.65-17.96,16.12-1.06,.88-2.2,.16-2.29-.84-.05-.59-.31-6.6-.31-6.6,0,0-5.12-1.35-9.05,3.3-.87,1.02-1.76,.13-1.76,.13l-8.65-10.87s-.77-.89,.2-1.64c2.25-1.72,8.18-6.53,18.01-7.29l-.6-6.19s.21-1.85,1.98-1.16"/>
      <path class="cls-3" d="M79.51,40.18c-3.57,6.62-13.59,18.26-14.18,19.09-.83,1.14-1.99,.74-2.32,.18-.12-.2-12.5-16.11-14.75-19.11-.8-1.11,0-2.21,1.01-2.21,.59-.03,6.61,.17,6.61,.17,0,0,1.73-5-2.61-9.28-.97-.93,0-1.77,0-1.77l11.45-7.79s.96-.73,1.64,.28c1.54,2.38,5.9,8.64,5.93,18.5l6.22-.14s1.83,.36,1.01,2.07"/>
      <path class="cls-1" d="M.21,39.01c3.59-6.6,13.59-18.25,14.2-19.09,.82-1.13,1.99-.74,2.31-.17,.13,.2,12.5,16.1,14.75,19.12,.81,1.1,0,2.19-1,2.21-.6,0-6.61-.16-6.61-.16,0,0-1.73,4.99,2.61,9.25,.97,.95,0,1.79,0,1.79l-11.47,7.81s-.96,.71-1.62-.31c-1.57-2.38-5.91-8.64-5.93-18.51l-6.23,.13s-1.83-.34-1.01-2.07"/>
      <path class="cls-4" d="M38.05,78.96c-6.62-3.59-18.26-13.59-19.09-14.18-1.14-.83-.74-2-.18-2.33,.2-.12,16.1-12.49,19.12-14.74,1.11-.8,2.19,0,2.21,1.01,0,.58-.18,6.61-.18,6.61,0,0,5.01,1.73,9.28-2.63,.94-.95,1.78,0,1.78,0l7.8,11.47s.72,.97-.3,1.62c-2.38,1.55-8.64,5.91-18.51,5.94l.13,6.22s-.33,1.83-2.06,1.01"/>
    </g>
  </g>
</svg>