<svg width="61" height="61" viewBox="0 0 61 61" fill="none" xmlns="http://www.w3.org/2000/svg">
<path fill-rule="evenodd" clip-rule="evenodd" d="M51.4901 9.39999C46.3993 4.31435 39.6347 1.25072 32.4544 0.778657C25.2741 0.306592 18.1667 2.45822 12.4539 6.83359C6.74112 11.209 2.81175 17.5102 1.39655 24.5655C-0.0186605 31.6208 1.17661 38.9499 4.76007 45.19L0.540039 60.5699L16.2801 56.44C20.6331 58.8127 25.5124 60.0541 30.47 60.0501V60.0501C36.3418 60.0505 42.082 58.3097 46.9645 55.0479C51.8471 51.7862 55.6528 47.15 57.9006 41.7254C60.1483 36.3009 60.7371 30.3315 59.5925 24.5724C58.4479 18.8132 55.6212 13.5228 51.47 9.36997L51.4901 9.39999ZM30.4901 55.0699C26.0706 55.0709 21.7323 53.8827 17.9301 51.63L17.0301 51.0999L7.69006 53.5501L10.1901 44.44L9.60004 43.5101C6.69107 38.8753 5.40492 33.405 5.94379 27.9596C6.48265 22.5141 8.81596 17.4023 12.5769 13.4276C16.3378 9.45282 21.3131 6.84064 26.7205 6.0018C32.1279 5.16296 37.6608 6.14504 42.4492 8.79355C47.2376 11.4421 51.01 15.6066 53.1733 20.6329C55.3366 25.6592 55.7682 31.2621 54.4001 36.5604C53.032 41.8587 49.9419 46.5519 45.6156 49.9024C41.2893 53.253 35.9721 55.0708 30.5001 55.0699H30.4901ZM44.0001 36.5899C43.2601 36.2199 39.6101 34.43 38.9301 34.18C38.2501 33.93 37.7601 33.8101 37.2601 34.5501C36.7601 35.2901 35.35 36.9701 34.91 37.4601C34.47 37.9501 34.0501 38.02 33.3101 37.65C31.1104 36.7834 29.0797 35.5379 27.3101 33.9701C25.6895 32.4678 24.298 30.736 23.1801 28.8299C22.7501 28.0899 23.1801 27.6802 23.5101 27.3102C23.8401 26.9402 24.2501 26.4501 24.6201 26.0101C24.9264 25.6391 25.1758 25.2246 25.36 24.7801C25.4604 24.5759 25.5076 24.3497 25.4971 24.1224C25.4866 23.8951 25.4188 23.6741 25.3 23.4801C25.12 23.1101 23.6301 19.4801 23.0101 17.9701C22.3901 16.4601 21.8001 16.72 21.3401 16.7C20.8801 16.68 20.42 16.7 19.92 16.7C19.5405 16.7086 19.167 16.7956 18.8228 16.9557C18.4785 17.1157 18.1712 17.3453 17.92 17.63C17.0822 18.4254 16.4193 19.3865 15.9734 20.4522C15.5275 21.518 15.3084 22.6649 15.3301 23.8199C15.3301 27.4699 17.9901 30.9901 18.3301 31.4901C18.6701 31.9901 23.5601 39.49 31.0001 42.69C32.3817 43.2838 33.7937 43.8046 35.23 44.2501C36.7425 44.7113 38.3422 44.8107 39.9001 44.5401C41.3301 44.3301 44.2901 42.7501 44.9001 41.0201C45.3885 39.9116 45.5381 38.6834 45.3301 37.4901C45.2601 37.1901 44.7601 36.9699 44.0001 36.5899Z" fill="white"/>
</svg>
